# xmcd CD database file
#
# Track frame offsets:
#	150
#	23260
#	39082
#	54010
#	73285
#	91360
#	112435
#	126087
#
# Disc length: 2004 seconds
#
# Revision: 0
# Processed by: cddbd v1.5.1PL0 Copyright (c) Steve Scherf et al.
# Submitted via: CDex 1.51
#
DISCID=6107d208
DTITLE=柳田久美子 - 魔法のかけかた
DYEAR=2002
DGENRE=JPop
TTITLE0=絵になるうた
TTITLE1=レモンティー
TTITLE2=8月の虹
TTITLE3=秘密
TTITLE4=影おくり
TTITLE5=まだない
TTITLE6=強い子、弱い子
TTITLE7=春夏秋冬。
EXTD=YEAR: 2002
EXTT0=
EXTT1=
EXTT2=
EXTT3=
EXTT4=
EXTT5=
EXTT6=
EXTT7=
PLAYORDER=
